<svg xmlns="http://www.w3.org/2000/svg" viewBox="0 0 208.51 63.58"><defs><style>.cls-1{fill:#00c4b6;}.cls-2{fill:#fbfcfb;}.cls-3{fill:#fff;}</style></defs><g id="Capa_2" data-name="Capa 2"><g id="Capa_1-2" data-name="Capa 1"><rect class="cls-1" width="208.51" height="63.58" rx="8"/><path class="cls-2" d="M43.25,41S46.4,28.64,59.57,28.07v-7L70.1,30.14l-10.38,11,.06-8.47S53.56,30.65,43.25,41Z"/><path class="cls-3" d="M82.27,37a6.46,6.46,0,0,0,3.32.94c1.89,0,3-1,3-2.45s-.77-2.1-2.7-2.85c-2.34-.83-3.79-2-3.79-4.06,0-2.23,1.85-3.89,4.64-3.89a6.54,6.54,0,0,1,3.17.7l-.51,1.51a5.81,5.81,0,0,0-2.73-.68c-2,0-2.7,1.17-2.7,2.15,0,1.34.88,2,2.85,2.76,2.43.94,3.66,2.11,3.66,4.22s-1.64,4.12-5,4.12a7.44,7.44,0,0,1-3.66-.91Z"/><path class="cls-3" d="M94.87,24.89v6h6.93v-6h1.87V39.23H101.8V32.51H94.87v6.72H93V24.89Z"/><path class="cls-3" d="M109.2,34.72l-1.49,4.51H105.8l4.87-14.34h2.23l4.9,14.34h-2l-1.53-4.51Zm4.7-1.45-1.4-4.12c-.32-.94-.53-1.79-.74-2.62h-.05c-.21.85-.44,1.72-.72,2.6l-1.4,4.14Z"/><path class="cls-3" d="M119.9,25.08a19.55,19.55,0,0,1,3.56-.29c2,0,3.25.36,4.14,1.17a3.52,3.52,0,0,1,1.13,2.72,3.77,3.77,0,0,1-2.7,3.66v.06a3.57,3.57,0,0,1,2.11,2.89,22.06,22.06,0,0,0,1.1,3.94h-1.91a18.65,18.65,0,0,1-1-3.43c-.42-2-1.19-2.72-2.87-2.78h-1.74v6.21H119.9Zm1.86,6.53h1.89c2,0,3.23-1.08,3.23-2.72,0-1.85-1.34-2.66-3.3-2.68a7.77,7.77,0,0,0-1.82.17Z"/><path class="cls-3" d="M138.77,32.51H133.2v5.17h6.21v1.55h-8.06V24.89h7.74v1.56H133.2V31h5.57Z"/></g></g></svg>