<svg xmlns="http://www.w3.org/2000/svg" viewBox="0 0 53.86 48.93"><defs><style>.cls-1{fill:#fbfcfb;}.cls-2{fill:#ef6a8e;}.cls-3{fill:#fff;}</style></defs><g id="Capa_2" data-name="Capa 2"><g id="Capa_1-2" data-name="Capa 1"><path class="cls-1" d="M17.76,48.93a5.07,5.07,0,0,0,5.07-5.07H12.69A5.07,5.07,0,0,0,17.76,48.93ZM34.83,37.06c-1.53-1.64-4.4-4.12-4.4-12.23A12.52,12.52,0,0,0,20.29,12.54V10.88a2.54,2.54,0,0,0-5.07,0v1.66A12.52,12.52,0,0,0,5.08,24.83c0,8.11-2.87,10.59-4.4,12.23a2.53,2.53,0,0,0,1.86,4.26H33a2.53,2.53,0,0,0,2.54-2.53A2.46,2.46,0,0,0,34.83,37.06Z"/><circle class="cls-2" cx="37.25" cy="16.61" r="16.61"/><path class="cls-3" d="M42.29,9.44H35.73l-.66,4.42a9.56,9.56,0,0,1,1.4-.11,7.23,7.23,0,0,1,3.71.93,4.92,4.92,0,0,1,2.45,4.42C42.63,22.45,40,25,36.24,25A8.42,8.42,0,0,1,32,23.91l.58-1.77a7.78,7.78,0,0,0,3.68.95,3.79,3.79,0,0,0,4.07-3.73c0-2.22-1.51-3.81-4.94-3.81a17.48,17.48,0,0,0-2.38.19l1.11-8.25h8.22Z"/></g></g></svg>