<svg xmlns="http://www.w3.org/2000/svg" viewBox="0 0 25.27 25.15"><defs><style>.cls-1{fill:#fff;}</style></defs><g id="Capa_2" data-name="Capa 2"><g id="Capa_1-2" data-name="Capa 1"><path class="cls-1" d="M15.24,9.55V0H0V25.15H25.27V9.55ZM5.05,24.14H1.2V20.3H5.05Zm0-4.81H1.2V15.49H5.05Zm0-4.82H1.2V10.67H5.05Zm0-4.81H1.2V5.86H5.05Zm0-4.81H1.2V1H5.05ZM9.46,24.14H5.62V20.3H9.46Zm0-4.81H5.62V15.49H9.46Zm0-4.82H5.62V10.67H9.46Zm0-4.81H5.62V5.86H9.46Zm0-4.81H5.62V1H9.46Zm4.42,19.25H10V20.3h3.84Zm0-4.81H10V15.49h3.84Zm0-4.82H10V10.67h3.84Zm0-4.81H10V5.86h3.84Zm0-4.81H10V1h3.84Zm5.93,19.25H16V20.3h3.85Zm0-4.81H16V15.49h3.85Zm0-4.82H16V10.67h3.85Zm4.41,9.63H20.38V20.3h3.84Zm0-4.81H20.38V15.49h3.84Zm0-4.82H20.38V10.67h3.84Z"/></g></g></svg>