<svg xmlns="http://www.w3.org/2000/svg" viewBox="0 0 42.43 37.98"><defs><style>.cls-1{fill:#fff;}</style></defs><g id="Capa_2" data-name="Capa 2"><g id="Capa_1-2" data-name="Capa 1"><path class="cls-1" d="M12.71,7.65c0-1,0-1.54,0-1.76,0-.66,0-1.25-.05-1.77a5.43,5.43,0,0,0-.48-2A3.6,3.6,0,0,0,10.55.46C9.41-.1,7.86-.14,5.33.29,4.25.48,3,.76,1.5,1.14A2,2,0,0,0,0,3.32l.15,1.2A1.93,1.93,0,0,0,.94,5.87a2,2,0,0,0,1.51.39q.67-.1,1.29-.15c.49,0,.9-.05,1.18-.05,0,.16,0,.34,0,.54,0,2.41,0,4.75,0,7s-.08,4.6-.15,6.93-.15,4.75-.24,7.22-.2,5.1-.31,7.88A2,2,0,0,0,6,37.74l.26,0h.22l.25,0,3.44-.43a2,2,0,0,0,1.74-1.92l.74-24.2C12.65,9.76,12.68,8.57,12.71,7.65Z"/><path class="cls-1" d="M42.31,32.83,42,32.08a2,2,0,0,0-2.7-1.14,8.66,8.66,0,0,1-1.31.47,3.86,3.86,0,0,1-.85.14s0-.06,0-.1a12.62,12.62,0,0,1-.08-1.57c0-.41,0-.88.05-1.42s.07-1.18.12-1.81.1-1.29.16-1.95.12-1.32.17-1.93.09-1.16.13-1.65,0-1,0-1.31a10.1,10.1,0,0,0-.45-3.17A6.67,6.67,0,0,0,36,14.23a5.57,5.57,0,0,0-2.09-1.51,6.54,6.54,0,0,0-5.75.51A11.08,11.08,0,0,0,25,16c-.21.26-.41.52-.62.81a1.36,1.36,0,0,0,0-.18,4.29,4.29,0,0,0-1-3.09,3.68,3.68,0,0,0-2.77-1.12,6.72,6.72,0,0,0-1.33.15c-.45.08-1,.21-1.56.37s-1.16.33-1.82.53-1.33.43-2,.68a2,2,0,0,0-1.3,2.3l.22,1a2,2,0,0,0,.91,1.3,2,2,0,0,0,1.56.23c.58-.15,1.09-.28,1.54-.37l.32-.05v0q0,.63,0,1.74c0,.75,0,1.59-.07,2.53s-.07,2-.11,3.07-.1,2.18-.15,3.29-.12,2.2-.19,3.28-.14,2.05-.22,3a2,2,0,0,0,1.87,2.16l.24,0h.37l3-.38a2,2,0,0,0,1.75-1.88,27.43,27.43,0,0,1,.52-4,30.93,30.93,0,0,1,1.07-3.87,29.58,29.58,0,0,1,1.42-3.41,18.8,18.8,0,0,1,1.59-2.63A7.71,7.71,0,0,1,29.61,20a1.25,1.25,0,0,1,.55-.3c.08,0,.1,0,.13,0s.21.29.21,1.26q0,.55-.09,1.53L30.2,24.9c-.08.88-.15,1.82-.21,2.79s-.1,2-.1,2.94c0,.79,0,1.54.07,2.22A9,9,0,0,0,30.34,35a4.58,4.58,0,0,0,1.21,2,3.69,3.69,0,0,0,2.6,1,7.88,7.88,0,0,0,2-.29,14.8,14.8,0,0,0,2-.67,20.17,20.17,0,0,0,1.87-.89,11.1,11.1,0,0,0,1.62-1.06A2,2,0,0,0,42.31,32.83Z"/></g></g></svg>